<svg xmlns="http://www.w3.org/2000/svg" xmlns:xlink="http://www.w3.org/1999/xlink" viewBox="0 0 275.96 168.68"><defs><style>.cls-1{fill:none;}.cls-2{clip-path:url(#clip-path);}.cls-3{fill:#163253;}</style><clipPath id="clip-path" transform="translate(-21.27 -17.23)"><rect class="cls-1" width="318" height="202.36"/></clipPath></defs><g id="Ebene_2" data-name="Ebene 2"><g id="Logos"><g class="cls-2"><g class="cls-2"><path class="cls-3" d="M140.49,53.77H45A10.63,10.63,0,0,1,34.42,43.15V27.89A10.63,10.63,0,0,1,45,17.26h95.46a10.64,10.64,0,0,1,10.62,10.63V43.15a10.64,10.64,0,0,1-10.62,10.62M45,20.58a7.32,7.32,0,0,0-7.3,7.31V43.15a7.32,7.32,0,0,0,7.3,7.3h95.46a7.31,7.31,0,0,0,7.3-7.3V27.89a7.31,7.31,0,0,0-7.3-7.31Z" transform="translate(-21.27 -17.23)"/><path class="cls-3" d="M144.41,112.56H40.89a10.38,10.38,0,0,1-10.38-10.38V69.38A10.39,10.39,0,0,1,40.89,59H144.41a10.39,10.39,0,0,1,10.37,10.38v32.8a10.38,10.38,0,0,1-10.37,10.38M40.89,62.24a7.15,7.15,0,0,0-7.15,7.14v32.8a7.16,7.16,0,0,0,7.15,7.15H144.41a7.16,7.16,0,0,0,7.14-7.15V69.38a7.15,7.15,0,0,0-7.14-7.14Z" transform="translate(-21.27 -17.23)"/><path class="cls-3" d="M155,185.46H31.89a10.63,10.63,0,0,1-10.62-10.62V128.55a10.63,10.63,0,0,1,10.62-10.62H155a10.63,10.63,0,0,1,10.62,10.62v46.29A10.63,10.63,0,0,1,155,185.46M31.89,121.25a7.31,7.31,0,0,0-7.3,7.3v46.29a7.31,7.31,0,0,0,7.3,7.3H155a7.31,7.31,0,0,0,7.3-7.3V128.55a7.31,7.31,0,0,0-7.3-7.3Z" transform="translate(-21.27 -17.23)"/><path class="cls-3" d="M45.91,66.84h8.53a5.2,5.2,0,0,1,5.2,5.2v28.17a5.19,5.19,0,0,1-5.2,5.19H45.91a5.19,5.19,0,0,1-5.19-5.19V72a5.2,5.2,0,0,1,5.19-5.2" transform="translate(-21.27 -17.23)"/><path class="cls-3" d="M97.22,29.16A6.23,6.23,0,1,1,91,35.38a6.23,6.23,0,0,1,6.23-6.22" transform="translate(-21.27 -17.23)"/><path class="cls-3" d="M130.6,29.16a6.23,6.23,0,1,1-6.22,6.22,6.22,6.22,0,0,1,6.22-6.22" transform="translate(-21.27 -17.23)"/><path class="cls-3" d="M184.66,185.91a5.74,5.74,0,0,1-5.72-5.65,6.18,6.18,0,0,1,.09-1l2.9-17.05a5.69,5.69,0,0,1,5.62-4.73h0l20.66-.29a5.75,5.75,0,0,1,5.58,4.39L218,178.47a5.75,5.75,0,0,1-4.28,6.9,6.33,6.33,0,0,1-1.21.14l-27.75.4Zm2.89-25.16a2.38,2.38,0,0,0-2.35,2l-2.91,17.05a3.22,3.22,0,0,0,0,.43,2.41,2.41,0,0,0,2.4,2.38h0l27.76-.4a2.22,2.22,0,0,0,.51-.06,2.41,2.41,0,0,0,1.79-2.88l-4.17-16.92a2.44,2.44,0,0,0-2.35-1.86l-20.67.28Z" transform="translate(-21.27 -17.23)"/><path class="cls-3" d="M186.61,143.07a3.18,3.18,0,0,1-1-.17l-2.93-1a2.65,2.65,0,0,1-1.57-3.2l4.82-13.13a2.66,2.66,0,0,1,3.4-1.55,2,2,0,0,1,.33.16l3,1.66a2.64,2.64,0,0,1,1.2,3.18l-4.45,12.07a3,3,0,0,1-2.82,2m-3.14-3.57s0,.06.1.08l2.85,1a.53.53,0,0,0,.67-.32l4.45-12.06-3.07-1.8a.16.16,0,0,0-.21.08l-4.79,13h0" transform="translate(-21.27 -17.23)"/><path class="cls-3" d="M209.37,143.48A2.65,2.65,0,0,1,207,142l-5.33-12.43a2.63,2.63,0,0,1,.91-3.17l2.83-2a2.55,2.55,0,0,1,.43-.25,2.6,2.6,0,0,1,3.44,1.29l6,13.29a2,2,0,0,1-1,2.69l-3.77,1.81a2.46,2.46,0,0,1-1.1.25m-3-18.2.5,1.14-2.84,2a.12.12,0,0,0,0,.16l5.3,12.37h.18l.05,0,0,0,3.33-1.6L207,126.47Zm6.82,13.89h0Z" transform="translate(-21.27 -17.23)"/><path class="cls-3" d="M208.4,160.08a3.51,3.51,0,0,1-.55-.05l-3.53-.06a2.86,2.86,0,0,1-1.79-1.39,3.7,3.7,0,0,1,.07-3L206.12,143a2.65,2.65,0,0,1,3.21-1.85,2.33,2.33,0,0,1,.31.11l3.61,1a2.32,2.32,0,0,1,1.59,2.74l-3.9,13.15a2.5,2.5,0,0,1-1.12,1.56,2.59,2.59,0,0,1-1.42.42m-3.51-2.54,3.44,0-.33,1.2.37-1.24.18-.14,3.81-12.85-3.64-1a.16.16,0,0,0-.2.08L205,156.38c-.31.84-.21,1.09-.21,1.09a.42.42,0,0,0,.13.07" transform="translate(-21.27 -17.23)"/><path class="cls-3" d="M186.72,160.31a2.22,2.22,0,0,1-2.12-1.63l-3.66-13.55a2.62,2.62,0,0,1,1.4-3.11l.31-.1,3.18-.55.15-.05A2.65,2.65,0,0,1,189.3,143L193.22,156c.73,2.8-.48,3.83-1.61,4.21l-.4.06h-3.84a2.48,2.48,0,0,1-.65.09m-3.39-16a.2.2,0,0,0,0,.11l3.6,13.31h4c.07-.13.11-.44-.07-1.12l-3.9-12.84a.16.16,0,0,0-.19-.09l-.33.1Z" transform="translate(-21.27 -17.23)"/><path class="cls-3" d="M180.21,117.51a12.47,12.47,0,0,1-12.46-12.45V30.22a12.46,12.46,0,1,1,24.92,0V45A1.83,1.83,0,1,1,189,45V30.22a8.81,8.81,0,0,0-17.62,0v74.84a8.81,8.81,0,0,0,17.62,0v-8a1.83,1.83,0,1,1,3.65,0v8a12.47,12.47,0,0,1-12.46,12.45" transform="translate(-21.27 -17.23)"/><path class="cls-3" d="M227.13,117.51a1.82,1.82,0,0,1-1.82-1.82V30.22a8.83,8.83,0,0,0-8.81-8.81h0a8.82,8.82,0,0,0-8.81,8.81v85.47a1.83,1.83,0,0,1-3.65,0V30.22a12.47,12.47,0,0,1,12.46-12.46h0A12.48,12.48,0,0,1,229,30.2v85.49a1.82,1.82,0,0,1-1.83,1.82" transform="translate(-21.27 -17.23)"/><path class="cls-3" d="M190.61,64.77h-21a1.83,1.83,0,0,1,0-3.65h21a1.83,1.83,0,1,1,0,3.65" transform="translate(-21.27 -17.23)"/><path class="cls-3" d="M284.78,117.51a12.47,12.47,0,0,1-12.46-12.45V30.22a12.46,12.46,0,0,1,24.92,0V45a1.83,1.83,0,1,1-3.65,0V30.22a8.82,8.82,0,0,0-17.63,0v74.84a8.82,8.82,0,0,0,17.63,0v-8a1.83,1.83,0,1,1,3.65,0v8a12.47,12.47,0,0,1-12.46,12.45" transform="translate(-21.27 -17.23)"/><path class="cls-3" d="M295.19,64.77H274.14a1.83,1.83,0,1,1,0-3.65h21.05a1.83,1.83,0,1,1,0,3.65" transform="translate(-21.27 -17.23)"/><path class="cls-3" d="M227.12,64.77h-21a1.83,1.83,0,1,1,0-3.65h21a1.83,1.83,0,0,1,0,3.65" transform="translate(-21.27 -17.23)"/><path class="cls-3" d="M250.74,117.6a12.53,12.53,0,0,1-9.85-4.07c-3.21-3.64-4.48-9.62-3.57-16.83a1.82,1.82,0,1,1,3.62.45c-.76,6.07.22,11.16,2.69,14a9.05,9.05,0,0,0,7.11,2.83,8.54,8.54,0,0,0,7.36-3.89,16.06,16.06,0,0,0,1.72-13.57c-2.36-6.37-11-29.52-16.63-44.45l-4.66-12.43c-1.43-3.65-3.14-12,.7-17.56,2.28-3.29,6.07-4.9,11-4.82,13.22.24,13.27,11.42,13.3,16.79a26.08,26.08,0,0,0,.09,2.73,1.82,1.82,0,1,1-3.62.45,27.17,27.17,0,0,1-.12-3.17c0-7.1-.79-13-9.72-13.15-3.73-.08-6.39,1-7.94,3.25-2.74,3.94-1.66,10.63-.28,14.17l4.67,12.46c5.59,14.94,14.27,38.09,16.63,44.47a19.46,19.46,0,0,1-2.14,16.92,12.2,12.2,0,0,1-10.36,5.45" transform="translate(-21.27 -17.23)"/></g></g></g></g></svg>

