<?xml version="1.0" standalone="no"?>
<!DOCTYPE svg PUBLIC "-//W3C//DTD SVG 20010904//EN"
 "http://www.w3.org/TR/2001/REC-SVG-20010904/DTD/svg10.dtd">
<svg version="1.0" xmlns="http://www.w3.org/2000/svg"
 width="1194.000000pt" height="467.000000pt" viewBox="0 0 1194.000000 467.000000"
 preserveAspectRatio="xMidYMid meet">
<metadata>
Created by potrace 1.16, written by Peter Selinger 2001-2019
</metadata>
<g transform="translate(0.000000,467.000000) scale(0.100000,-0.100000)"
fill="#000000" stroke="none">
<path d="M5073 4450 c-92 -19 -156 -69 -195 -155 -21 -47 -23 -66 -26 -272 -2
-142 1 -242 8 -277 17 -83 64 -144 139 -183 l63 -33 1261 0 1262 0 50 24 c60
28 127 99 143 154 8 26 12 128 12 294 0 253 0 254 -26 306 -29 58 -69 96 -134
126 -45 21 -50 21 -1280 23 -679 0 -1254 -3 -1277 -7z m2525 -109 c42 -22 63
-43 86 -88 13 -27 16 -70 16 -259 0 -212 -2 -231 -21 -272 -13 -26 -38 -54
-62 -70 l-41 -27 -1251 0 -1251 0 -42 28 c-76 50 -82 73 -82 336 0 244 4 267
48 315 55 58 -18 55 1325 56 1195 0 1239 -1 1275 -19z"/>
<path d="M6390 4151 c-118 -38 -154 -179 -69 -267 79 -81 210 -61 258 40 12
23 21 56 21 72 0 43 -40 116 -75 136 -37 21 -101 30 -135 19z"/>
<path d="M7224 4150 c-125 -38 -149 -227 -37 -291 96 -56 220 -7 243 97 29
126 -84 231 -206 194z"/>
<path d="M10188 4450 c-103 -18 -180 -78 -220 -169 -26 -59 -35 -198 -19 -283
7 -35 139 -400 294 -813 l282 -750 0 -101 c0 -96 -2 -105 -35 -170 -25 -49
-47 -77 -78 -99 -40 -27 -51 -30 -126 -30 -74 0 -87 3 -125 28 -81 54 -116
146 -114 307 1 60 -3 110 -9 117 -15 18 -63 16 -79 -4 -10 -11 -14 -48 -14
-132 1 -198 56 -320 176 -386 47 -25 67 -30 150 -33 105 -5 152 9 223 63 97
74 160 262 138 409 -7 41 -114 340 -291 814 -155 412 -286 773 -291 802 -39
208 40 330 215 330 93 0 138 -14 180 -55 45 -45 63 -108 71 -251 6 -106 9
-117 31 -131 21 -14 25 -14 48 1 23 15 25 22 25 99 -1 199 -44 325 -134 384
-26 18 -64 37 -84 42 -57 15 -162 21 -214 11z"/>
<path d="M8430 4431 c-87 -27 -165 -95 -204 -180 l-21 -46 0 -1020 0 -1020 28
-57 c30 -62 83 -115 149 -150 36 -19 58 -23 138 -23 84 0 101 3 146 27 60 32
119 94 147 157 18 39 22 71 25 198 l4 151 -26 18 c-21 13 -32 15 -50 6 -23
-10 -24 -15 -28 -154 -3 -122 -7 -149 -25 -184 -85 -163 -299 -163 -386 -1
-22 42 -22 46 -25 570 l-3 527 246 0 c151 0 254 4 266 10 22 12 26 59 7 78 -9
9 -82 12 -266 12 l-253 0 3 413 c3 400 4 413 25 452 42 78 114 125 193 125 79
0 151 -47 193 -125 20 -37 22 -60 27 -270 l5 -230 27 -9 c22 -8 32 -6 48 9 21
19 21 26 18 255 -3 265 -8 286 -84 370 -58 64 -141 100 -229 99 -38 0 -81 -4
-95 -8z"/>
<path d="M9340 4431 c-87 -27 -165 -95 -204 -180 l-21 -46 -3 -1118 c-2 -773
1 -1123 8 -1137 12 -23 59 -27 78 -8 9 9 12 169 12 660 l0 648 220 0 220 0 0
-648 c0 -491 3 -651 12 -660 16 -16 63 -15 77 2 8 10 11 308 9 1137 l-3 1124
-24 53 c-30 66 -113 144 -177 166 -49 17 -160 20 -204 7z m168 -106 c20 -9 54
-33 75 -53 64 -63 67 -83 67 -529 l0 -393 -221 0 -220 0 3 413 c3 400 4 413
25 452 57 106 170 152 271 110z"/>
<path d="M11023 4419 c-64 -25 -131 -88 -163 -154 l-25 -50 0 -1030 0 -1030
23 -47 c53 -107 150 -170 272 -176 97 -5 171 21 234 82 82 80 90 107 94 298
l4 168 -26 11 c-20 10 -30 9 -51 -5 -25 -16 -25 -18 -25 -150 0 -183 -27 -241
-132 -286 -104 -44 -217 -3 -270 99 l-28 53 0 524 0 524 248 0 c228 0 250 2
265 18 20 22 22 53 5 70 -9 9 -82 12 -265 12 l-253 0 0 409 0 409 28 53 c82
157 304 155 381 -4 19 -40 21 -61 21 -264 0 -208 1 -221 20 -238 16 -15 26
-17 48 -9 l27 10 0 254 c0 245 -1 257 -23 297 -33 63 -75 106 -134 138 -72 39
-196 46 -275 14z"/>
<path d="M4932 3391 c-62 -21 -123 -76 -152 -136 -19 -39 -20 -63 -20 -525 0
-549 -3 -528 85 -609 83 -76 -13 -72 1501 -69 l1349 3 54 30 c30 17 67 48 83
69 57 79 59 100 56 597 -3 436 -4 456 -24 499 -25 54 -72 103 -128 133 l-41
22 -1355 2 c-1296 2 -1357 2 -1408 -16z m2730 -81 c45 -13 93 -51 116 -94 15
-28 17 -75 17 -486 0 -411 -2 -458 -17 -486 -24 -43 -71 -81 -118 -94 -26 -7
-468 -9 -1362 -8 -1480 3 -1356 -3 -1415 75 l-28 36 -3 464 c-2 446 -2 464 17
502 23 44 68 80 115 91 50 13 2635 12 2678 0z"/>
<path d="M5081 3192 c-70 -38 -71 -42 -71 -467 0 -425 0 -426 70 -473 33 -22
42 -23 182 -20 164 3 186 11 221 79 16 31 17 67 15 424 -3 434 -2 426 -73 459
-51 25 -298 23 -344 -2z"/>
<path d="M4709 1914 c-59 -18 -130 -81 -160 -141 l-24 -48 0 -650 0 -650 23
-47 c13 -25 43 -65 67 -87 83 -77 -41 -72 1751 -69 l1599 3 41 22 c53 28 99
74 127 127 l22 41 0 660 c0 658 0 660 -22 700 -12 23 -42 60 -66 82 -85 78 41
73 -1731 72 -1333 0 -1588 -3 -1627 -15z m3261 -104 c45 -23 73 -60 89 -115
16 -57 15 -1179 -1 -1242 -16 -67 -71 -118 -140 -132 -38 -8 -499 -11 -1608
-9 l-1555 3 -40 23 c-22 13 -52 39 -65 59 l-25 37 -3 615 c-2 339 0 630 3 648
7 38 46 88 90 114 29 18 89 19 1623 19 1567 0 1593 0 1632 -20z"/>
<path d="M3538 1879 c-31 -4 -75 -17 -98 -29 -33 -17 -40 -18 -40 -5 0 13 -20
15 -130 15 l-130 0 0 -500 0 -500 130 0 130 0 0 326 0 327 45 53 c55 64 120
99 167 89 58 -13 85 -33 104 -77 17 -38 19 -79 22 -380 l3 -338 125 0 124 0 0
338 c0 358 -6 425 -45 502 -25 49 -94 118 -141 143 -66 34 -178 49 -266 36z
m193 -85 c64 -20 122 -74 156 -142 l28 -57 3 -332 3 -333 -54 0 -55 0 -4 313
-3 312 -26 56 c-31 65 -67 94 -135 109 -86 19 -159 -7 -230 -82 -91 -96 -84
-62 -84 -404 l0 -304 -60 0 -60 0 0 430 0 430 60 0 60 0 0 -60 c0 -33 2 -60 5
-60 2 0 24 21 47 46 50 54 84 74 158 90 61 14 121 10 191 -12z"/>
<path d="M2567 1870 c-97 -25 -195 -103 -251 -201 -85 -149 -88 -418 -7 -580
86 -172 218 -247 416 -236 102 5 177 28 259 77 l56 34 0 138 0 139 -64 -50
c-106 -81 -232 -116 -325 -91 -63 17 -128 81 -151 150 l-19 55 291 3 291 2 -6
98 c-11 168 -50 274 -134 363 -66 71 -133 100 -235 105 -46 2 -100 -1 -121 -6z
m189 -75 c122 -36 208 -169 229 -352 l7 -63 -292 0 -293 0 6 -66 c11 -118 66
-208 159 -259 49 -28 61 -30 148 -29 95 0 108 4 238 61 8 4 12 -8 12 -40 l0
-45 -60 -31 c-80 -39 -158 -55 -250 -48 -95 6 -154 33 -214 96 -84 91 -126
207 -126 351 0 136 35 246 106 328 83 97 207 134 330 97z"/>
<path d="M2553 1685 c-47 -28 -88 -100 -99 -172 l-7 -43 203 0 202 0 -7 53
c-9 69 -40 132 -78 159 -24 17 -49 24 -102 26 -61 3 -76 0 -112 -23z m174 -66
c16 -14 43 -62 43 -79 0 -6 -43 -10 -120 -10 -66 0 -120 2 -120 5 0 14 30 62
48 78 40 36 109 39 149 6z"/>
<path d="M813 1835 c-80 -22 -131 -52 -189 -109 -96 -97 -144 -225 -144 -386
0 -162 48 -287 146 -386 167 -167 445 -160 607 16 114 123 157 285 127 480
-24 156 -148 321 -277 370 -75 28 -199 35 -270 15z m261 -91 c102 -50 180
-156 211 -286 53 -225 -51 -458 -235 -530 -71 -27 -176 -29 -248 -4 -62 21
-150 98 -189 163 -81 138 -85 341 -11 487 25 48 99 129 146 158 90 56 227 61
326 12z"/>
<path d="M843 1610 c-48 -21 -96 -87 -114 -155 -18 -65 -7 -233 18 -280 64
-122 198 -158 292 -79 101 85 121 317 38 441 -57 85 -147 113 -234 73z m133
-69 c52 -32 79 -101 79 -201 0 -72 -4 -93 -25 -134 -33 -64 -83 -93 -133 -77
-72 24 -110 97 -109 211 0 91 20 148 68 190 40 35 75 38 120 11z"/>
<path d="M1440 1141 l0 -711 130 0 130 0 0 258 0 257 103 0 c113 0 162 16 237
75 49 39 96 132 111 223 17 103 7 289 -20 357 -40 104 -121 183 -228 223 -51
19 -83 22 -260 25 l-203 3 0 -710z m457 605 c72 -33 134 -94 166 -164 20 -42
22 -64 22 -197 -1 -182 -18 -239 -91 -304 -88 -77 -228 -94 -313 -38 -22 15
-43 27 -46 27 -3 0 -5 -130 -5 -290 l0 -290 -60 0 -60 0 0 646 0 646 163 -4
c154 -3 165 -5 224 -32z"/>
<path d="M1630 1430 l0 -240 24 -15 c41 -27 125 -39 176 -25 64 17 124 82 146
156 22 76 15 193 -14 250 -44 86 -103 114 -244 114 l-88 0 0 -240z m210 152
c121 -60 100 -324 -29 -363 -29 -9 -47 -9 -75 1 l-36 12 0 184 0 184 53 0 c29
0 67 -8 87 -18z"/>
<path d="M8682 1763 c-13 -11 -45 -85 -80 -183 -77 -213 -74 -200 -57 -234 14
-26 14 -31 0 -46 -22 -24 -20 -37 30 -220 44 -161 44 -165 26 -185 -34 -37
-40 -61 -82 -309 l-41 -247 24 -46 c16 -33 35 -53 61 -66 37 -19 53 -19 430
-11 384 9 393 9 424 32 18 13 39 41 49 68 l17 46 -52 219 c-70 292 -68 284
-100 317 l-29 29 48 164 c49 163 53 201 23 217 -12 7 -10 12 11 26 15 9 26 26
26 39 0 12 -36 101 -79 197 -105 233 -122 245 -230 160 -39 -31 -51 -47 -51
-68 0 -15 29 -95 64 -177 l64 -150 -56 -197 -56 -198 -102 0 -103 0 -26 88
c-14 48 -40 133 -58 189 -19 58 -29 107 -24 115 21 35 117 314 117 339 0 34
-18 52 -81 84 -57 30 -80 31 -107 8z m79 -80 c16 -10 29 -22 29 -29 0 -16 -98
-276 -108 -286 -8 -8 -74 12 -70 23 2 3 28 74 58 157 30 84 56 152 58 152 2 0
17 -8 33 -17z m472 -78 c19 -44 49 -110 66 -148 l30 -67 -38 -20 -38 -19 -65
152 -65 152 31 22 c17 11 34 18 37 15 4 -4 23 -43 42 -87z m-501 -496 c26 -85
48 -157 48 -161 0 -5 -20 -8 -44 -8 -34 0 -46 4 -50 18 -19 63 -76 279 -76
289 0 11 41 22 65 18 6 -1 31 -71 57 -156z m551 150 c24 -6 37 -15 34 -23 -3
-7 -21 -68 -41 -137 -21 -68 -39 -132 -42 -141 -4 -14 -16 -18 -48 -18 l-43 0
46 165 c25 91 48 165 51 165 3 0 22 -5 43 -11z m-29 -422 c18 -13 125 -413
126 -469 0 -54 -11 -56 -406 -60 -390 -3 -394 -3 -394 50 0 58 73 448 88 464
12 14 36 18 141 21 342 8 427 7 445 -6z"/>
</g>
</svg>
